<?xml version="1.0" encoding="UTF-8"?>
<svg width="367px" height="193px" viewBox="0 0 367 193" version="1.1" xmlns="http://www.w3.org/2000/svg" xmlns:xlink="http://www.w3.org/1999/xlink">
    <!-- Generator: Sketch 41.2 (35397) - http://www.bohemiancoding.com/sketch -->
    <title>imagem-tv</title>
    <desc>Created with Sketch.</desc>
    <defs>
        <rect id="path-1" x="0" y="0" width="312.733717" height="156.68463"></rect>
    </defs>
    <g id="Positivação-TV---desktop" stroke="none" stroke-width="1" fill="none" fill-rule="evenodd">
        <g id="pre-home-2a-TV" transform="translate(-875.000000, -345.000000)">
            <g id="imagem-tv" transform="translate(876.000000, 346.000000)">
                <path d="M153,186 L110,186 L110,190.620688 L203.148592,190.620688 L203.148592,186 L159.62,186 L159.62,157 L153,157 L153,186 Z" id="Combined-Shape" stroke="#EF3A67" stroke-width="1"></path>
                <path d="M348.758333,162.357538 L348.758333,159.005256 C350.164129,158.897117 351.353648,158.248289 352.43503,157.275045 C353.516411,156.301802 354.057102,155.004144 354.16524,153.598348 L357.517523,153.598348 C357.409384,155.869249 356.544279,158.032012 354.922207,159.654084 C353.191997,161.384295 351.029234,162.2494 348.758333,162.357538 L348.758333,162.357538 Z M335.781756,173.603905 C334.808512,172.630662 334.808512,170.900451 335.781756,169.927208 C336.754999,168.953965 338.485209,168.953965 339.458453,169.927208 C340.431696,170.900451 340.431696,172.630662 339.458453,173.603905 C338.485209,174.685286 336.863137,174.685286 335.781756,173.603905 L335.781756,173.603905 Z M337.29569,153.598348 L340.647972,153.598348 C341.080525,154.67973 341.729354,155.761111 342.594459,156.626216 C343.459564,157.491322 344.540945,158.14015 345.622327,158.572703 L345.622327,161.924986 C343.783978,161.384295 341.94563,160.411051 340.323558,158.897117 C338.701486,157.383183 337.83638,155.544835 337.29569,153.598348 L337.29569,153.598348 Z M325.61677,163.43892 C324.643527,162.465676 324.643527,160.735466 325.61677,159.762223 C326.590013,158.788979 328.320224,158.788979 329.293467,159.762223 C330.26671,160.735466 330.26671,162.465676 329.293467,163.43892 C328.320224,164.412163 326.590013,164.412163 325.61677,163.43892 L325.61677,163.43892 Z M339.458453,144.298468 C341.080525,142.676396 343.243288,141.811291 345.514189,141.703153 L345.514189,145.055435 C344.108393,145.163573 342.918873,145.812402 341.837492,146.785645 C340.864248,147.758889 340.21542,149.056546 340.107281,150.462342 L336.754999,150.462342 C336.971275,148.191441 337.83638,146.028678 339.458453,144.298468 L339.458453,144.298468 Z M356.760556,132.295134 C357.733799,133.268377 357.733799,134.998588 356.760556,135.971831 C355.787312,136.945074 354.057102,136.945074 353.083859,135.971831 C352.110615,134.998588 352.110615,133.268377 353.083859,132.295134 C354.057102,131.213753 355.679174,131.213753 356.760556,132.295134 L356.760556,132.295134 Z M364.330226,124.617326 C365.303469,125.590569 365.303469,127.320779 364.330226,128.294023 C363.356982,129.267266 361.626772,129.267266 360.653529,128.294023 C359.680286,127.320779 359.680286,125.590569 360.653529,124.617326 C361.626772,123.644083 363.356982,123.644083 364.330226,124.617326 L364.330226,124.617326 Z M372.440587,116.615103 C373.41383,117.588346 373.41383,119.318557 372.440587,120.2918 C371.467343,121.265043 369.737133,121.265043 368.76389,120.2918 C367.790646,119.318557 367.790646,117.588346 368.76389,116.615103 C369.737133,115.533722 371.359205,115.533722 372.440587,116.615103 L372.440587,116.615103 Z M357.08497,150.462342 L353.732688,150.462342 C353.300135,149.380961 352.651306,148.299579 351.786201,147.434474 C350.921096,146.569369 349.839714,145.92054 348.758333,145.487988 L348.758333,142.135705 C350.596681,142.676396 352.43503,143.649639 354.057102,145.163573 C355.679174,146.677507 356.544279,148.515856 357.08497,150.462342 L357.08497,150.462342 Z M366.925541,142.46012 C367.898784,143.433363 367.898784,145.163573 366.925541,146.136816 C365.952298,147.11006 364.222088,147.11006 363.248844,146.136816 C362.275601,145.163573 362.275601,143.433363 363.248844,142.46012 C364.330226,141.486876 365.952298,141.486876 366.925541,142.46012 L366.925541,142.46012 Z M374.603349,134.89045 C375.576593,135.863693 375.576593,137.593903 374.603349,138.567146 C373.630106,139.54039 371.899896,139.54039 370.926652,138.567146 C369.953409,137.593903 369.953409,135.863693 370.926652,134.89045 C371.899896,133.809068 373.521968,133.809068 374.603349,134.89045 L374.603349,134.89045 Z M382.605572,126.780089 C383.578815,127.753332 383.578815,129.483542 382.605572,130.456786 C381.632329,131.430029 379.902118,131.430029 378.928875,130.456786 C377.955632,129.483542 377.955632,127.753332 378.928875,126.780089 C380.010257,125.806845 381.632329,125.806845 382.605572,126.780089 L382.605572,126.780089 Z M388.661308,129.483542 C389.634551,128.510299 389.634551,126.780089 388.661308,125.806845 L373.305692,110.559367 C372.332448,109.586124 370.602238,109.586124 369.628995,110.559367 L313.613436,166.683064 C312.640193,167.656307 312.640193,169.386517 313.613436,170.359761 L328.969053,185.715377 C329.942296,186.68862 331.672506,186.68862 332.64575,185.715377 L388.661308,129.483542 Z" id="Page-1" stroke="#EF4D75" stroke-width="1" transform="translate(351.137372, 148.137372) rotate(-45.000000) translate(-351.137372, -148.137372) "></path>
                <mask id="mask-2" fill="white">
                    <use xlink:href="#path-1"></use>
                </mask>
                <use id="TV" stroke="#EF3A67" stroke-width="1" xlink:href="#path-1"></use>
                <g id="Page-1" opacity="0.849999964" stroke-width="1" fill-rule="evenodd" mask="url(#mask-2)" fill="#EF3A67">
                    <g transform="translate(156.000000, 78.500000) rotate(-270.000000) translate(-156.000000, -78.500000) translate(121.000000, 24.000000)" id="Fill-1">
                        <path d="M67.2243509,106.341819 L3.23854537,106.341819 C2.5515812,106.341819 2.06089251,105.646774 2.06089251,104.95173 L2.06089251,3.70690436 C2.06089251,2.89601903 2.64971894,2.31681523 3.23854537,2.31681523 L45.7321862,2.31681523 L45.7321862,25.8324898 C45.7321862,27.5701012 46.909839,29.0760311 48.4800428,29.0760311 L68.5001415,29.0760311 L68.5001415,104.95173 C68.5001415,105.762615 67.9113151,106.341819 67.2243509,106.341819 L67.2243509,106.341819 Z M47.2042522,3.47522284 L67.3224887,27.2225789 L48.3819051,27.2225789 C47.6949409,27.2225789 47.2042522,26.5275343 47.2042522,25.8324898 L47.2042522,3.47522284 Z M46.7135636,0.579203806 L3.23854537,0.579203806 C1.76647929,0.579203806 0.490688693,1.96929294 0.490688693,3.82274512 L0.490688693,104.95173 C0.490688693,106.689341 1.66834156,108.195271 3.23854537,108.195271 L67.2243509,108.195271 C68.696417,108.195271 69.9722076,106.805182 69.9722076,104.95173 L69.9722076,27.9176235 L46.7135636,0.579203806 Z"></path>
                    </g>
                </g>
                <path d="M280.498484,33.3636286 L280.498484,22.083943 L285.702398,16.7843441 L285.702398,16.7836602 C287.27633,15.181265 289.826584,15.181265 291.399844,16.7836602 L296.61383,22.083943 L296.61383,33.3636286 L280.498484,33.3636286 Z" id="Stroke-1" stroke="#EF3A67" stroke-width="1" mask="url(#mask-2)"></path>
                <path d="M296.61383,33.3636286 L291.399844,27.7261795 C289.826584,26.1237843 287.27633,26.1237843 285.702398,27.7261795 L285.702398,27.7268634 L280.498484,33.3636286" id="Stroke-3" stroke="#EF3A67" stroke-width="1" mask="url(#mask-2)"></path>
                <path d="M280.498484,22.0838062 L286.122068,27.2986005" id="Stroke-5" stroke="#EF3A67" stroke-width="1" mask="url(#mask-2)"></path>
                <path d="M296.5863,22.1119148 L290.990246,27.2986689" id="Stroke-7" stroke="#EF3A67" stroke-width="1" mask="url(#mask-2)"></path>
                <path d="M282.009298,23.7889243 L295.103017,23.7889243" id="Stroke-9" stroke="#EF3A67" stroke-width="1" mask="url(#mask-2)"></path>
                <path d="M118.995702,60.5 L147.470279,60.5" id="Line" stroke="#EF3A67" stroke-width="1" stroke-linecap="square" opacity="0.900000036" mask="url(#mask-2)"></path>
                <path d="M118.995702,71.5 L174.471672,71.5" id="Line" stroke="#EF3A67" stroke-width="1" stroke-linecap="square" opacity="0.900000036" mask="url(#mask-2)"></path>
                <path d="M118.995702,82.5 L174.471672,82.5" id="Line" stroke="#EF3A67" stroke-width="1" stroke-linecap="square" opacity="0.900000036" mask="url(#mask-2)"></path>
                <path d="M118.995702,94.5 L171.412224,94.5" id="Line" stroke="#EF3A67" stroke-width="1" stroke-linecap="square" opacity="0.900000036" mask="url(#mask-2)"></path>
            </g>
        </g>
    </g>
</svg>